<?xml version="1.0" encoding="UTF-8" standalone="no"?>
<!-- Created with Inkscape (http://www.inkscape.org/) -->

<svg
   xmlns:dc="http://purl.org/dc/elements/1.1/"
   xmlns:cc="http://creativecommons.org/ns#"
   xmlns:rdf="http://www.w3.org/1999/02/22-rdf-syntax-ns#"
   xmlns:svg="http://www.w3.org/2000/svg"
   xmlns="http://www.w3.org/2000/svg"
   xmlns:sodipodi="http://sodipodi.sourceforge.net/DTD/sodipodi-0.dtd"
   xmlns:inkscape="http://www.inkscape.org/namespaces/inkscape"
   version="1.1"
   id="svg4127"
   width="745.19562"
   height="611.58124"
   viewBox="0 0 745.19564 611.58124"
   sodipodi:docname="out1.svg"
   inkscape:version="0.92.3 (unknown)">
  <metadata
     id="metadata4133">
    <rdf:RDF>
      <cc:Work
         rdf:about="">
        <dc:format>image/svg+xml</dc:format>
        <dc:type
           rdf:resource="http://purl.org/dc/dcmitype/StillImage" />
        <dc:title></dc:title>
      </cc:Work>
    </rdf:RDF>
  </metadata>
  <defs
     id="defs4131" />
  <sodipodi:namedview
     pagecolor="#ffffff"
     bordercolor="#666666"
     borderopacity="1"
     objecttolerance="10"
     gridtolerance="10"
     guidetolerance="10"
     inkscape:pageopacity="0"
     inkscape:pageshadow="2"
     inkscape:window-width="1855"
     inkscape:window-height="1056"
     id="namedview4129"
     showgrid="false"
     fit-margin-top="0"
     fit-margin-left="0"
     fit-margin-right="0"
     fit-margin-bottom="0"
     inkscape:zoom="0.21459962"
     inkscape:cx="652.58846"
     inkscape:cy="128.27635"
     inkscape:window-x="65"
     inkscape:window-y="24"
     inkscape:window-maximized="1"
     inkscape:current-layer="svg4127" />
  <path
     style="fill:#000000;stroke-width:1.33333337"
     d="m 258.21279,609.51784 c -14.31365,-2.5848 -32.72925,-8.9024 -44.7961,-15.3674 -25.59078,-13.7108 -45.10563,-33.46469 -71.79132,-72.6708 -9.55912,-14.04408 -13.35311,-17.00944 -31.3,-24.46385 -21.632115,-8.98512 -31.571445,-16.30607 -43.337482,-31.92077 -18.21843,-24.17767 -30.23731,-56.40374 -34.83405,-93.40003 -1.88448,-15.16705 -1.72739,-28.89109 0.59561,-52.03497 5.75823,-57.36878 6.58139,-72.82032 4.92327,-92.41422 -0.88056,-10.4055 -2.85204,-24.61912 -4.38107,-31.58578 -1.52903,-6.96667 -4.6764,-21.96667 -6.99417,-33.33334 l -4.21411,-20.66666 -6.76119,-0.82528 C -0.46858215,138.9073 -3.2884722,131.8047 3.3694378,110.72884 13.278838,79.3603 41.249218,51.901542 74.247985,41.146802 c 27.483465,-8.95722 54.296475,-9.17636 97.170145,-0.79413 20.43476,3.9952 32.52601,4.22019 40.17344,0.74753 3.02952,-1.37569 11.92008,-6.80314 19.7568,-12.06101 27.81597,-18.66248 45.33014,-25.0694797 76.84908,-28.11274974 23.46939,-2.26605996 43.84927,-0.59894 91.65853,7.49786004 10.50828,1.7796497 21.36058,3.2357197 24.11625,3.2357197 2.75565,0 13.35797,-2.1145197 23.56071,-4.6989397 21.84402,-5.53324 37.65135,-6.88761004 55.21707,-4.73101 35.23855,4.32633 51.47304,10.0391597 93.70772,32.9751997 25.75568,13.98693 33.15035,16.45112 49.41107,16.46568 28.63397,0.0256 46.11177,4.34327 62.4415,15.42519 22.9647,15.584658 35.3636,42.330818 36.7294,79.230538 0.9362,25.29464 -2.1657,41.71192 -14.158,74.93288 l -4.1872,11.59955 2.0277,15.46875 c 4.7938,36.5693 0.1851,62.97934 -17.2177,98.66549 -17.15308,35.17399 -37.42096,58.97116 -73.52666,86.33001 -16.02196,12.14054 -20.11804,17.42296 -30.76072,39.66999 -18.54809,38.77215 -23.81597,47.23529 -39.71992,63.81219 -11.69288,12.18766 -22.52505,20.02798 -37.11984,26.86732 -22.39983,10.49692 -46.77612,13.59768 -102.29401,13.01228 -39.17497,-0.413 -36.75552,-0.8901 -67.25171,13.2604 -42.1999,19.5811 -71.56053,25.181 -102.61885,19.5723 z m 56.53723,-10.2994 c 13.2897,-3.5594 32.88309,-11.279 48.18141,-18.9831 4.98548,-2.5107 13.73417,-6.1882 19.44155,-8.17234 l 10.37704,-3.6075 47.33333,-0.12827 c 52.5134,-0.14224 62.20796,-1.19119 81.1653,-8.78207 15.6268,-6.25728 25.10299,-12.7049 38.9365,-26.49246 17.62268,-17.5642 21.64452,-24.04143 41.80018,-67.31994 8.53665,-18.33 14.37961,-25.27932 33.88879,-40.30566 31.69553,-24.41251 51.23602,-47.13471 66.65708,-77.51064 18.7342,-36.90203 23.1513,-61.09456 18.6106,-101.93035 l -1.6083,-14.46336 6.8644,-20.26473 c 9.3095,-27.48274 11.2567,-37.79423 11.2547,-59.59807 0,-14.9342 -0.5757,-20.21163 -3.3715,-30.98493 -4.4212,-17.03606 -11.0962,-29.48686 -21.254,-39.64467 -14.81789,-14.817798 -33.05749,-21.284398 -60.27709,-21.370328 -22.02077,-0.0695 -29.68389,-2.1956 -53.8092,-14.92896 -55.50345,-29.2948 -72.86844,-34.7347397 -111.52413,-34.9372397 -20.06896,-0.10507 -22.27991,0.14442 -37.30438,4.2105597 -20.44052,5.53189 -30.31056,5.58392 -62.21411,0.32792 C 350.8818,8.2339823 331.7008,6.8402723 310.51213,8.7093623 278.53591,11.530062 262.81781,17.019122 236.69298,34.488432 c -27.73108,18.5434 -32.92827,19.54543 -67.27629,12.97104 -21.66579,-4.14695 -25.19145,-4.46047 -49.33333,-4.38708 -29.325985,0.0892 -38.484825,1.79959 -56.795712,10.60677 -25.5924,12.30944 -48.04515,38.896308 -54.6628102,64.727628 -2.78496,10.87076 -1.89978,14.03496 4.2490102,15.18848 2.64844,0.49685 5.19424,0.52447 5.65733,0.0613 0.46311,-0.46309 -0.44308,-3.07488 -2.01373,-5.80394 -4.68399,-8.13859 0.43597,-13.25904 6.08141,-6.08203 4.3622,5.54564 8.13222,17.22145 12.23412,37.88935 2.11038,10.63333 5.48131,26.83333 7.49096,36 3.42002,15.59968 3.65674,18.75796 3.69771,49.33333 0.0345,25.76189 -0.62165,38.58505 -3.10439,60.66667 -5.48717,48.803 -2.92132,81.30574 8.98067,113.76201 5.22918,14.2598 14.37892,31.42616 22.095037,41.45383 11.24512,14.61388 20.7564,21.06393 46.572165,31.58277 12.17547,4.961 20.42311,12.66121 31.89557,29.77855 15.74716,23.49537 27.58308,37.20046 43.94785,50.88832 16.14374,13.50301 39.58979,24.26481 62.17446,28.53841 15.3499,2.9045 40.23728,1.821 56.16701,-2.4455 z m -10,-149.7669 c -34.6088,-4.115 -58.60368,-12.14218 -80.2636,-26.85114 -12.35348,-8.38909 -26.20033,-24.09333 -32.40125,-36.74748 -7.91772,-16.15758 -9.94603,-25.32404 -9.92633,-44.85957 0.028,-27.80075 6.97034,-48.5974 25.56793,-76.59216 10.59612,-15.95023 39.267,-45.54191 56.06278,-57.86331 22.70006,-16.65277 58.59689,-36.36437 81.62713,-44.82292 5.5,-2.02004 11.8,-4.65877 14,-5.86386 6.68143,-3.65988 35.82266,-2.8601 56.8676,1.56074 52.83824,11.09955 97.38825,39.48391 115.31399,73.47056 7.15688,13.56922 9.88358,23.59747 10.72502,39.44428 1.54359,29.07052 -8.32258,60.97975 -27.10565,87.66524 -8.58632,12.19875 -38.41425,41.80075 -53.13429,52.73182 -28.40283,21.09185 -64.3752,33.76321 -108.4746,38.21046 -12.92579,1.30352 -39.849,1.58859 -48.85873,0.51734 z m 45.33333,-11.17242 c 29.03651,-2.72941 62.48216,-11.40872 81.91215,-21.25656 20.14272,-10.20908 55.92401,-41.45882 72.19445,-63.05134 10.23278,-13.57992 19.00896,-31.7077 23.43493,-48.40638 2.83341,-10.69013 3.51883,-16.31778 3.56108,-29.23816 0.046,-14.08046 -0.38889,-17.27968 -3.62529,-26.66666 -9.30196,-26.97968 -28.75732,-46.59175 -62.81066,-63.31658 -21.03425,-10.33068 -33.59965,-14.58416 -55.41167,-18.75725 -33.78743,-6.46421 -51.25546,-3.22556 -90.56657,16.79145 -47.0204,23.94255 -81.74296,53.72175 -105.60451,90.56988 -17.88864,27.62447 -24.74815,58.31174 -19.08477,85.37916 11.31749,54.09062 74.41757,85.62124 156.00086,77.95244 z m -5.03649,-121.33729 c -10.88696,-1.83083 -27.63017,-12.82039 -27.63017,-18.13532 0,-6.09651 4.64975,-6.67856 25.75318,-3.22376 22.36988,3.66213 29.95052,5.74495 34.80375,9.56249 4.54352,3.57395 4.27845,9.03023 -0.55694,11.46423 -3.69837,1.86165 -22.14941,2.05111 -32.36982,0.33236 z m 20.36982,-8.87653 c -2.56666,-1.12412 -6.46666,-2.26636 -8.66666,-2.53831 -2.2,-0.27196 -8.77782,-1.37547 -14.61738,-2.45224 -5.83956,-1.07677 -10.81517,-1.75996 -11.05693,-1.51821 -0.24176,0.24176 1.80895,1.76621 4.55711,3.38766 6.22369,3.67207 13.11857,5.07966 25.1172,5.12763 l 9.33333,0.0373 -4.66667,-2.04385 z m 40.85566,-18.2998 c -16.63744,-9.54336 -16.99083,-19.43882 -0.6942,-19.43882 9.42697,0 13.6594,1.9314 20.27208,9.25086 8.17914,9.05333 6.22069,14.77625 -5.03354,14.70877 -5.15544,-0.0309 -8.56377,-1.09032 -14.54434,-4.52081 z M 289.95559,272.31882 c -3.08856,-4.71374 -0.55592,-10.19607 7.73928,-16.75304 7.44028,-5.88122 13.97112,-7.62111 19.6997,-5.24826 4.73203,1.96008 5.92166,5.00856 3.96725,10.16639 -3.25716,8.59593 -13.37324,15.09379 -23.58107,15.14683 -4.56172,0.0237 -6.05318,-0.60755 -7.82516,-3.31192 z"
     id="path4137"
     inkscape:connector-curvature="0" />
</svg>
